HIERARCHY
ROOT root
{
	OFFSET 0.000000 0.000000 0.000000
	CHANNELS 6 Xposition Yposition Zposition Zrotation Yrotation Xrotation
	JOINT lhip
	{
		OFFSET 0.058581 -0.082280 -0.017664
		CHANNELS 3 Zrotation Yrotation Xrotation
		JOINT lknee
		{
			OFFSET 0.043451 -0.386469 0.008037
			CHANNELS 3 Zrotation Yrotation Xrotation
			JOINT lankle
			{
				OFFSET -0.014790 -0.426874 -0.037428
				CHANNELS 3 Zrotation Yrotation Xrotation
				JOINT ltoe
				{
					OFFSET 0.041054 -0.060286 0.122042
					CHANNELS 3 Zrotation Yrotation Xrotation
					End Site
					{
						OFFSET 0.000000 0.000000 0.000000
					}
				}
			}
		}
	}
	JOINT rhip
	{
		OFFSET -0.060310 -0.090513 -0.013543
		CHANNELS 3 Zrotation Yrotation Xrotation
		JOINT rknee
		{
			OFFSET -0.043257 -0.383688 -0.004843
			CHANNELS 3 Zrotation Yrotation Xrotation
			JOINT rankle
			{
				OFFSET 0.019056 -0.420046 -0.034562
				CHANNELS 3 Zrotation Yrotation Xrotation
				JOINT rtoe
				{
					OFFSET -0.034840 -0.062106 0.130323
					CHANNELS 3 Zrotation Yrotation Xrotation
					End Site
					{
						OFFSET 0.000000 0.000000 0.000000
					}
				}
			}
		}
	}
	JOINT lowerback
	{
		OFFSET 0.004439 0.124404 -0.038385
		CHANNELS 3 Zrotation Yrotation Xrotation
		JOINT upperback
		{
			OFFSET 0.004488 0.137956 0.026820
			CHANNELS 3 Zrotation Yrotation Xrotation
			JOINT chest
			{
				OFFSET -0.002265 0.056032 0.002855
				CHANNELS 3 Zrotation Yrotation Xrotation
				JOINT lowerneck
				{
					OFFSET -0.013390 0.211636 -0.033468
					CHANNELS 3 Zrotation Yrotation Xrotation
					JOINT upperneck
					{
						OFFSET 0.010113 0.088937 0.050410
						CHANNELS 3 Zrotation Yrotation Xrotation
						End Site
						{
							OFFSET 0.000000 0.000000 0.000000
						}
					}
				}
				JOINT lclavicle
				{
					OFFSET 0.071702 0.114000 -0.018898
					CHANNELS 3 Zrotation Yrotation Xrotation
					JOINT lshoulder
					{
						OFFSET 0.122921 0.045205 -0.019046
						CHANNELS 3 Zrotation Yrotation Xrotation
						JOINT lelbow
						{
							OFFSET 0.255332 -0.015649 -0.022946
							CHANNELS 3 Zrotation Yrotation Xrotation
							JOINT lwrist
							{
								OFFSET 0.265709 0.012698 -0.007375
								CHANNELS 3 Zrotation Yrotation Xrotation
								End Site
								{
									OFFSET 0.000000 0.000000 0.000000
								}
							}
						}
					}
				}
				JOINT rclavicle
				{
					OFFSET -0.082954 0.112472 -0.023707
					CHANNELS 3 Zrotation Yrotation Xrotation
					JOINT rshoulder
					{
						OFFSET -0.113228 0.046853 -0.008472
						CHANNELS 3 Zrotation Yrotation Xrotation
						JOINT relbow
						{
							OFFSET -0.260127 -0.014369 -0.031269
							CHANNELS 3 Zrotation Yrotation Xrotation
							JOINT rwrist
							{
								OFFSET -0.269108 0.006794 -0.006027
								CHANNELS 3 Zrotation Yrotation Xrotation
								End Site
								{
									OFFSET 0.000000 0.000000 0.000000
								}
							}
						}
					}
				}
			}
		}
	}
}
MOTION
Frames: 13
Frame Time: 0.033333
-0.160746 0.797116 0.968613 65.506275 -3.453598 81.724777 2.722183 2.172907 -6.952033 -2.820430 5.726680 7.804869 3.011104 8.155659 -3.120108 0.000000 -0.000000 0.000000 -7.023071 -7.854512 4.511961 -0.474933 -7.806286 21.688808 -0.483936 -6.382677 -21.961472 0.000000 -0.000000 0.000000 2.521293 3.211072 4.001506 -0.471161 -2.479773 0.516716 -0.095670 1.769745 -0.576326 1.041454 3.492666 -7.789385 3.191427 0.840987 5.717280 -22.599029 -20.124015 -3.135836 -65.323134 -27.007069 20.312922 30.477054 -50.303665 -23.816125 36.962673 9.333162 -19.369818 23.096004 24.466664 2.801160 66.219010 22.165042 29.140382 1.384541 41.017054 16.256159 -18.346963 2.417235 2.631115 
-0.162997 0.795886 0.968949 65.545544 -3.351552 82.112156 2.927054 2.108346 -7.573898 -2.835262 5.815074 7.941809 2.581956 8.274816 -2.955628 0.000000 -0.000000 0.000000 -6.463487 -7.355930 3.852388 -0.534680 -7.720288 21.795626 -0.380193 -7.150722 -22.005186 0.000000 -0.000000 0.000000 2.391345 3.278930 3.493225 -0.134404 -2.506847 0.179438 -0.127330 1.881365 -0.536498 1.176278 3.905714 -7.817404 3.193853 0.661472 6.218634 -21.448912 -21.098461 -3.906604 -63.962595 -28.932669 20.489068 31.161626 -51.025306 -24.245387 37.630204 9.684536 -19.692224 22.769690 25.160996 2.364465 65.607642 24.193613 29.183204 0.138762 41.724841 15.651100 -17.968742 1.886864 2.007075 
-0.162752 0.794864 0.969064 65.598279 -3.425282 81.707182 2.843919 2.256186 -7.103340 -2.674321 6.063359 7.897037 2.550069 7.860143 -3.040557 0.000000 -0.000000 0.000000 -6.606672 -7.625992 4.302614 -0.619751 -7.680911 21.755944 -0.248031 -6.710021 -22.093644 0.000000 -0.000000 0.000000 2.456743 3.464625 3.692522 -0.047314 -2.572669 -0.134143 -0.010683 1.975034 -0.567459 1.184340 3.893370 -8.093718 2.537034 0.124527 7.604356 -20.143843 -22.210630 -4.839651 -63.640730 -30.586213 20.371938 33.066494 -51.642921 -26.313375 37.235174 8.234498 -18.790152 22.008440 26.115615 1.707033 65.276421 26.220211 28.767941 -1.617427 42.183684 13.760761 -17.760261 2.383414 3.036228 
-0.163997 0.792901 0.969524 65.813317 -3.501701 81.407176 2.794637 2.323563 -6.726361 -2.583318 5.861345 7.630009 2.462375 8.003005 -3.048662 0.000000 -0.000000 0.000000 -6.531538 -7.789485 4.704613 -0.663186 -7.720155 21.665003 -0.294502 -6.823800 -21.941680 0.000000 -0.000000 0.000000 2.277998 3.606559 3.497747 0.037598 -2.642578 -0.130003 -0.019626 2.172144 -0.698661 1.069248 4.358971 -7.400995 3.005609 -0.300562 7.591173 -17.992726 -24.263296 -5.914828 -61.119085 -32.871032 20.071358 34.747320 -53.239981 -28.192829 38.106315 8.320630 -18.783512 21.212904 28.073778 1.219808 63.815726 28.990432 28.076364 -4.142125 42.981970 10.812290 -18.685776 2.535915 3.135060 
-0.163752 0.792475 0.969533 65.945506 -3.592234 81.386168 2.625441 2.134446 -6.779470 -2.412259 5.503869 7.882671 2.476414 7.967166 -2.920780 0.000000 -0.000000 0.000000 -6.707812 -7.725390 4.808984 -0.522856 -7.891910 21.539402 -0.109660 -6.676904 -21.768590 0.000000 -0.000000 0.000000 2.297397 3.609065 3.386334 0.161525 -2.722790 -0.494848 -0.033870 2.325554 -0.840193 1.155304 4.603690 -7.452589 2.699972 -0.545895 8.410565 -17.080550 -25.191728 -6.533408 -59.846489 -34.561350 19.521231 35.841881 -53.660798 -29.814145 37.912595 7.607528 -18.468955 20.549403 28.851208 0.909060 62.979291 31.009657 27.555247 -5.334564 43.284400 8.960215 -18.349071 2.457524 2.761483 
-0.163954 0.790831 0.969865 65.960686 -3.685330 81.090711 2.696509 2.103013 -6.458441 -2.447237 5.679225 7.832604 2.280905 7.997209 -2.740510 0.000000 -0.000000 0.000000 -6.771679 -7.898536 5.249647 -0.446907 -7.719036 21.268060 0.014329 -6.699346 -21.673530 0.000000 -0.000000 0.000000 2.082747 3.870605 3.382255 0.359466 -2.866165 -0.766924 0.038685 2.509710 -0.808352 1.246688 5.008908 -7.578834 2.421384 -1.032991 9.613083 -14.937869 -26.520818 -7.942504 -58.101110 -36.555102 19.171929 37.429199 -54.525464 -31.602448 38.476744 7.091044 -18.242027 19.933037 30.106291 0.553905 61.184642 33.395192 26.693852 -7.520762 44.395903 6.600416 -19.889237 3.053525 3.592289 
-0.163927 0.788863 0.969884 65.795182 -3.637754 80.820887 2.917851 2.316334 -6.103463 -2.402394 5.470370 7.843628 2.155508 7.984970 -2.782690 0.000000 -0.000000 0.000000 -6.706669 -7.946926 5.524031 -0.367505 -7.668733 21.278369 0.059010 -6.586662 -21.557110 0.000000 -0.000000 0.000000 2.138412 4.093311 3.116506 0.546966 -2.828574 -0.574504 0.137390 2.899900 -0.992481 1.128023 5.238098 -6.958343 2.320741 -1.404433 9.585715 -12.955471 -28.114302 -9.238992 -56.046583 -38.711696 18.256845 39.870049 -55.222667 -34.326320 38.912937 6.743584 -17.897068 18.485896 31.566694 -0.573851 59.597289 35.391398 25.680911 -9.742079 45.304480 4.509636 -20.921890 3.079516 4.221882 
-0.163843 0.787221 0.970116 65.879489 -3.827434 80.701755 2.744728 2.233691 -6.014918 -2.222450 5.564881 7.877491 1.840110 7.963980 -2.660025 0.000000 -0.000000 0.000000 -6.875316 -8.221172 5.707836 -0.422018 -7.583234 21.185187 0.135985 -6.429547 -21.521048 0.000000 -0.000000 0.000000 1.958790 4.317108 2.910378 0.649594 -2.984754 -0.779929 0.196214 3.078560 -1.147869 0.985441 5.297865 -6.526440 2.114709 -2.024296 10.078932 -10.675051 -29.218087 -10.799393 -53.789002 -40.681177 17.274970 41.950005 -55.973058 -36.443002 38.573789 6.184799 -17.231293 16.937409 32.754204 -1.617369 58.318096 38.125157 24.584956 -11.911086 45.298289 1.658037 -19.950262 3.058266 4.591568 
-0.163871 0.785435 0.970504 65.960244 -3.901443 80.465862 2.711214 1.961676 -5.697169 -2.091841 5.365482 7.814271 1.793890 8.250887 -2.541558 0.000000 -0.000000 0.000000 -6.865727 -8.056216 6.142214 -0.188771 -7.466974 20.847676 0.213577 -6.835791 -21.280866 0.000000 -0.000000 0.000000 1.811356 4.469718 2.769962 0.821430 -2.966440 -0.954354 0.241619 3.364192 -1.171995 1.201634 5.753201 -6.691756 1.974577 -2.211904 10.956809 -8.223611 -30.544695 -12.257702 -50.929056 -42.840581 15.955342 44.236276 -56.475507 -38.980652 38.593681 5.304512 -17.368179 15.621081 34.006806 -2.438651 55.734467 40.346503 23.054598 -14.440460 46.161962 -0.874285 -20.363984 3.826352 4.664185 
-0.163997 0.783576 0.970638 65.918429 -3.980384 80.483516 2.789420 2.027089 -5.750566 -2.103983 5.131260 7.998443 1.897472 8.500835 -2.734143 0.000000 -0.000000 0.000000 -6.850566 -8.274066 6.038999 -0.184923 -7.223300 20.972938 0.532665 -6.830386 -21.155162 0.000000 -0.000000 0.000000 1.585697 4.782995 2.489535 1.032051 -3.081058 -1.388364 0.415210 3.606895 -1.255291 1.391437 5.961027 -6.164670 1.937633 -2.911794 11.107755 -5.085588 -31.626952 -14.470499 -47.161683 -45.045580 13.929432 46.603301 -57.568029 -41.039492 39.404254 4.666716 -15.828149 13.533070 35.271577 -4.203400 53.003960 43.141453 21.126764 -17.013333 47.050648 -3.894254 -22.475780 3.737219 5.338458 
-0.163256 0.781630 0.971205 65.740770 -4.095809 80.300482 2.744307 2.310515 -5.473257 -1.997522 4.909824 8.008330 1.429700 8.618607 -2.611710 0.000000 -0.000000 0.000000 -6.944843 -8.408411 6.269916 -0.199414 -7.092896 20.930697 0.676842 -6.662639 -21.251979 0.000000 -0.000000 0.000000 1.460900 4.923983 2.456975 1.189341 -3.050126 -1.840092 0.576410 3.951689 -1.297842 1.589587 6.256629 -5.856624 1.817457 -3.316468 11.600786 -2.436553 -32.090695 -16.404841 -44.184635 -46.633893 12.221471 48.833026 -57.983966 -43.404833 39.258272 3.749576 -15.563780 11.702837 36.022787 -5.541779 51.279427 45.722826 19.375525 -19.104779 46.675979 -6.028437 -20.512397 4.099560 5.629525 
-0.163154 0.779594 0.971580 65.722904 -4.235375 80.231375 2.686470 2.205260 -5.578879 -1.937516 4.600305 8.396771 1.236796 9.001338 -2.639345 0.000000 -0.000000 0.000000 -6.796690 -8.308326 6.260594 -0.357172 -6.798392 21.058035 0.958884 -7.048695 -21.253800 0.000000 -0.000000 0.000000 1.288395 5.093288 2.232783 1.291851 -2.866483 -2.068465 0.802804 4.254101 -1.477737 1.431100 6.295291 -5.294060 1.837594 -3.882077 11.774390 -0.076562 -33.087918 -17.914409 -39.937376 -47.856800 9.474602 51.006007 -58.742859 -45.753774 39.599159 3.009487 -15.104145 9.352142 36.955111 -6.926199 47.730287 47.779464 16.682885 -20.743868 46.885997 -7.461850 -21.078032 4.361225 5.121913 
-0.161986 0.777805 0.972260 65.571209 -4.342898 79.768375 2.621723 2.176934 -5.009941 -1.747327 4.314231 8.521049 1.298375 9.167916 -2.718416 0.000000 -0.000000 0.000000 -6.972512 -8.315907 7.019563 -0.182460 -6.495434 20.671548 1.213244 -6.995381 -21.158237 0.000000 -0.000000 0.000000 1.383974 5.330181 2.643485 1.269409 -2.775645 -2.672489 0.851395 4.581772 -1.262011 1.679381 6.162255 -5.086290 1.869558 -4.336865 12.317746 3.019573 -33.184479 -20.098566 -36.684109 -49.371429 7.211767 52.986154 -58.953850 -47.932670 40.828695 2.214935 -14.176256 7.525050 37.775689 -8.326585 44.090937 50.081943 13.683215 -22.865113 46.574305 -10.594819 -24.859443 5.073217 7.495026 
